<?xml version="1.0" encoding="UTF-8" standalone="no"?><!DOCTYPE svg PUBLIC "-//W3C//DTD SVG 1.1//EN" "http://www.w3.org/Graphics/SVG/1.1/DTD/svg11.dtd"><svg width="100%" height="100%" viewBox="0 0 25 25" version="1.1" xmlns="http://www.w3.org/2000/svg" xmlns:xlink="http://www.w3.org/1999/xlink" xml:space="preserve" xmlns:serif="http://www.serif.com/" style="fill-rule:evenodd;clip-rule:evenodd;stroke-linejoin:round;stroke-miterlimit:2;"><path id="Inst_act" d="M20.816,24.642l-16.5,0c-2.071,0 -3.75,-1.678 -3.75,-3.749l-0,-16.5c-0,-2.072 1.679,-3.75 3.75,-3.75l16.5,-0c2.071,-0 3.75,1.678 3.75,3.75l-0,16.5c-0,2.071 -1.679,3.749 -3.75,3.749Zm-8.25,-15.999c-2.209,-0 -4,1.791 -4,3.999c-0,2.209 1.791,4 4,4c2.209,0 4,-1.791 4,-4c-0,-2.208 -1.791,-3.999 -4,-3.999Zm9,-3.5c-0,-0.829 -0.672,-1.5 -1.5,-1.5l-1,-0c-0.829,-0 -1.5,0.671 -1.5,1.5l-0,0.999c-0,0.829 0.671,1.501 1.5,1.501l1,-0c0.828,-0 1.5,-0.672 1.5,-1.501l-0,-0.999Zm-0,5.499l-2.325,0c0.191,0.638 0.325,1.301 0.325,2c-0,3.866 -3.134,7.001 -7,7.001c-3.866,-0 -7,-3.135 -7,-7.001c-0,-0.699 0.134,-1.362 0.325,-2l-2.325,0l-0,9.501c-0,0.828 0.671,1.499 1.5,1.499l15,0c0.828,0 1.5,-0.671 1.5,-1.499l-0,-9.501Z" style="fill:#f26627;"/></svg>