<?xml version="1.0" encoding="UTF-8" standalone="no"?><!DOCTYPE svg PUBLIC "-//W3C//DTD SVG 1.1//EN" "http://www.w3.org/Graphics/SVG/1.1/DTD/svg11.dtd"><svg width="100%" height="100%" viewBox="0 0 25 25" version="1.1" xmlns="http://www.w3.org/2000/svg" xmlns:xlink="http://www.w3.org/1999/xlink" xml:space="preserve" xmlns:serif="http://www.serif.com/" style="fill-rule:evenodd;clip-rule:evenodd;stroke-linejoin:round;stroke-miterlimit:2;"><path id="Inst_Inact" d="M20.803,24.733l-16.5,-0c-2.071,-0 -3.75,-1.679 -3.75,-3.75l-0,-16.5c-0,-2.071 1.679,-3.75 3.75,-3.75l16.5,0c2.071,0 3.75,1.679 3.75,3.75l-0,16.5c-0,2.071 -1.679,3.75 -3.75,3.75Zm-8.25,-16c-2.209,0 -4,1.791 -4,4c-0,2.209 1.791,4 4,4c2.209,-0 4,-1.791 4,-4c-0,-2.209 -1.791,-4 -4,-4Zm9,-3.5c-0,-0.828 -0.672,-1.5 -1.5,-1.5l-1,0c-0.829,0 -1.5,0.672 -1.5,1.5l-0,1c-0,0.828 0.671,1.5 1.5,1.5l1,-0c0.828,-0 1.5,-0.672 1.5,-1.5l-0,-1Zm-0,5.5l-2.325,-0c0.191,0.637 0.325,1.3 0.325,2c-0,3.866 -3.134,7 -7,7c-3.866,-0 -7,-3.134 -7,-7c-0,-0.7 0.134,-1.363 0.325,-2l-2.325,-0l-0,9.5c-0,0.828 0.671,1.5 1.5,1.5l15,-0c0.828,-0 1.5,-0.672 1.5,-1.5l-0,-9.5Z" style="fill:#f9a26c;"/></svg>