<?xml version="1.0" encoding="UTF-8" standalone="no"?><!DOCTYPE svg PUBLIC "-//W3C//DTD SVG 1.1//EN" "http://www.w3.org/Graphics/SVG/1.1/DTD/svg11.dtd"><svg width="100%" height="100%" viewBox="0 0 34 51" version="1.1" xmlns="http://www.w3.org/2000/svg" xmlns:xlink="http://www.w3.org/1999/xlink" xml:space="preserve" xmlns:serif="http://www.serif.com/" style="fill-rule:evenodd;clip-rule:evenodd;stroke-linejoin:round;stroke-miterlimit:2;"><g id="Logo"><path id="Pin-Icon" serif:id="Pin Icon" d="M33.426,27.21c-1.707,5.741 -7.107,11.182 -7.107,11.182c-0,-0 -5.381,-5.427 -7.097,-11.156c-0.29,-0.806 -0.456,-1.715 -0.456,-2.622c-0,-4.194 3.381,-7.549 7.553,-7.549c4.172,-0 7.553,3.355 7.553,7.549c0,0.897 -0.162,1.797 -0.446,2.596Zm-7.107,-5.702c-1.718,-0 -3.11,1.392 -3.11,3.11c-0,1.718 2.392,5.11 3.11,5.11c0.718,0 3.11,-3.392 3.11,-5.11c0,-1.718 -1.392,-3.11 -3.11,-3.11Z" style="fill:url(#_Linear1);"/><path d="M24.591,0.343c0.447,-0.026 0.885,0.134 1.21,0.442c0.326,0.307 0.51,0.735 0.51,1.182c0.008,2.225 0.008,6.116 0.008,8.265c-0,0.843 -0.642,1.548 -1.481,1.627c-7.002,0.729 -12.464,6.659 -12.464,13.855c0,5.764 3.505,10.716 8.498,12.839c0.183,0.074 0.315,0.237 0.348,0.432c0.034,0.195 -0.037,0.393 -0.185,0.524c-1.543,1.422 -2.509,3.46 -2.509,5.722c0,1.458 0.402,2.823 1.1,3.99c0.124,0.197 0.114,0.451 -0.025,0.638c-0.14,0.186 -0.38,0.268 -0.604,0.205c-10.471,-3.142 -18.106,-12.862 -18.106,-24.35c-0,-13.454 10.47,-24.481 23.7,-25.371Z" style="fill:url(#_Linear2);"/><circle cx="26.319" cy="45.4" r="4.922" style="fill:#1d3124;"/><path d="M26.319,40.478c2.716,0 4.922,2.206 4.922,4.922c-0,2.716 -2.206,4.922 -4.922,4.922c-2.716,-0 -4.922,-2.206 -4.922,-4.922c0,-2.716 2.206,-4.922 4.922,-4.922Zm-0,1.892c1.673,-0 3.03,1.357 3.03,3.03c0,1.673 -1.357,3.031 -3.03,3.031c-1.673,-0 -3.031,-1.358 -3.031,-3.031c0,-1.673 1.358,-3.03 3.031,-3.03Z" style="fill:#f9a26c;"/><circle cx="26.319" cy="45.4" r="4.922" style="fill:#f7f4e7;"/><path d="M26.319,40.478c2.716,0 4.922,2.206 4.922,4.922c-0,2.716 -2.206,4.922 -4.922,4.922c-2.716,-0 -4.922,-2.206 -4.922,-4.922c0,-2.716 2.206,-4.922 4.922,-4.922Zm-0,7.555c-1.453,-0 -2.633,-1.18 -2.633,-2.633c0,-1.453 1.18,-2.633 2.633,-2.633c1.453,0 2.633,1.18 2.633,2.633c-0,1.453 -1.18,2.633 -2.633,2.633Z" style="fill:#1d3124;"/></g><defs><linearGradient id="_Linear1" x1="0" y1="0" x2="1" y2="0" gradientUnits="userSpaceOnUse" gradientTransform="matrix(15.1066,0,0,21.3269,18.7656,27.7283)"><stop offset="0" style="stop-color:#56715f;stop-opacity:1"/><stop offset="1" style="stop-color:#1d3124;stop-opacity:1"/></linearGradient><linearGradient id="_Linear2" x1="0" y1="0" x2="1" y2="0" gradientUnits="userSpaceOnUse" gradientTransform="matrix(25.4284,0,0,50.2027,0.890569,25.3866)"><stop offset="0" style="stop-color:#56715f;stop-opacity:1"/><stop offset="1" style="stop-color:#1d3124;stop-opacity:1"/></linearGradient></defs></svg>