<?xml version="1.0" encoding="UTF-8" standalone="no"?><!DOCTYPE svg PUBLIC "-//W3C//DTD SVG 1.1//EN" "http://www.w3.org/Graphics/SVG/1.1/DTD/svg11.dtd"><svg width="100%" height="100%" viewBox="0 0 104 156" version="1.1" xmlns="http://www.w3.org/2000/svg" xmlns:xlink="http://www.w3.org/1999/xlink" xml:space="preserve" xmlns:serif="http://www.serif.com/" style="fill-rule:evenodd;clip-rule:evenodd;stroke-linejoin:round;stroke-miterlimit:2;"><g id="Logo"><path id="Pin-Icon" serif:id="Pin Icon" d="M101.627,83.649c-5.284,17.778 -22.005,34.622 -22.005,34.622c0,0 -16.661,-16.801 -21.975,-34.539c-0.896,-2.496 -1.411,-5.312 -1.411,-8.12c-0,-12.984 10.471,-23.373 23.386,-23.373c12.917,-0 23.387,10.389 23.387,23.373c0,2.776 -0.503,5.566 -1.382,8.037Zm-22.005,-17.654c-5.318,-0 -9.629,4.311 -9.629,9.63c-0,5.318 7.408,15.822 9.629,15.822c2.223,-0 9.63,-10.504 9.63,-15.822c0,-5.319 -4.311,-9.63 -9.63,-9.63Z" style="fill:url(#_Linear1);"/><path d="M77.961,0.302c0.437,-0.007 0.859,0.162 1.171,0.469c0.313,0.307 0.488,0.726 0.488,1.164c0.002,5.971 0.002,26.413 0.002,32.305c0,0.884 -0.702,1.608 -1.586,1.634c-23.096,0.832 -41.589,19.845 -41.589,43.143c-0,18.533 11.702,34.355 28.113,40.471c0.197,0.072 0.338,0.245 0.37,0.452c0.031,0.206 -0.052,0.413 -0.217,0.541c-5.612,4.419 -9.218,11.274 -9.218,18.965c-0,5.641 1.94,10.832 5.188,14.942c0.156,0.19 0.172,0.459 0.041,0.667c-0.132,0.208 -0.382,0.308 -0.621,0.249c-34.026,-8.692 -59.212,-39.571 -59.212,-76.287c-0,-42.898 34.382,-77.829 77.07,-78.715Z" style="fill:url(#_Linear2);"/><path d="M77.961,0.302c0.437,-0.007 0.859,0.162 1.171,0.469c0.313,0.307 0.488,0.726 0.488,1.164c0.002,5.971 0.002,26.413 0.002,32.305c0,0.884 -0.702,1.608 -1.586,1.634c-23.096,0.832 -41.589,19.845 -41.589,43.143c-0,18.533 11.702,34.355 28.113,40.471c0.197,0.072 0.338,0.245 0.37,0.452c0.031,0.206 -0.052,0.413 -0.217,0.541c-5.612,4.419 -9.218,11.274 -9.218,18.965c-0,5.641 1.94,10.832 5.188,14.942c0.156,0.19 0.172,0.459 0.041,0.667c-0.132,0.208 -0.382,0.308 -0.621,0.249c-34.026,-8.692 -59.212,-39.571 -59.212,-76.287c-0,-42.898 34.382,-77.829 77.07,-78.715Z" style="fill:url(#_Linear3);"/><path d="M79.622,124.732c8.411,0 15.239,6.828 15.239,15.239c-0,8.41 -6.828,15.238 -15.239,15.238c-8.41,0 -15.238,-6.828 -15.238,-15.238c-0,-8.411 6.828,-15.239 15.238,-15.239Zm0,1.891c7.367,0 13.348,5.981 13.348,13.348c-0,7.366 -5.981,13.347 -13.348,13.347c-7.366,-0 -13.347,-5.981 -13.347,-13.347c0,-7.367 5.981,-13.348 13.347,-13.348Z" style="fill:#f9a26c;"/><path d="M79.622,124.732c8.411,0 15.239,6.828 15.239,15.239c-0,8.41 -6.828,15.238 -15.239,15.238c-8.41,0 -15.238,-6.828 -15.238,-15.238c-0,-8.411 6.828,-15.239 15.238,-15.239Zm0,7.555c4.241,-0 7.684,3.443 7.684,7.684c0,4.24 -3.443,7.684 -7.684,7.684c-4.241,-0 -7.684,-3.444 -7.684,-7.684c0,-4.241 3.443,-7.684 7.684,-7.684Z" style="fill:url(#_Linear4);"/></g><defs><linearGradient id="_Linear1" x1="0" y1="0" x2="1" y2="0" gradientUnits="userSpaceOnUse" gradientTransform="matrix(46.7734,0,0,66.0328,56.2356,85.2549)"><stop offset="0" style="stop-color:#56715f;stop-opacity:1"/><stop offset="1" style="stop-color:#1d3124;stop-opacity:1"/></linearGradient><linearGradient id="_Linear2" x1="0" y1="0" x2="1" y2="0" gradientUnits="userSpaceOnUse" gradientTransform="matrix(78.7318,0,0,155.439,0.890569,78.0045)"><stop offset="0" style="stop-color:#56715f;stop-opacity:1"/><stop offset="1" style="stop-color:#1d3124;stop-opacity:1"/></linearGradient><linearGradient id="_Linear3" x1="0" y1="0" x2="1" y2="0" gradientUnits="userSpaceOnUse" gradientTransform="matrix(78.7318,0,0,155.439,0.890569,78.0045)"><stop offset="0" style="stop-color:#56715f;stop-opacity:1"/><stop offset="1" style="stop-color:#1d3124;stop-opacity:1"/></linearGradient><linearGradient id="_Linear4" x1="0" y1="0" x2="1" y2="0" gradientUnits="userSpaceOnUse" gradientTransform="matrix(30.4768,0,0,30.4768,64.3839,139.971)"><stop offset="0" style="stop-color:#466c58;stop-opacity:1"/><stop offset="1" style="stop-color:#1d3124;stop-opacity:1"/></linearGradient></defs></svg>