<?xml version="1.0" encoding="UTF-8" standalone="no"?><!DOCTYPE svg PUBLIC "-//W3C//DTD SVG 1.1//EN" "http://www.w3.org/Graphics/SVG/1.1/DTD/svg11.dtd"><svg width="100%" height="100%" viewBox="0 0 36 54" version="1.1" xmlns="http://www.w3.org/2000/svg" xmlns:xlink="http://www.w3.org/1999/xlink" xml:space="preserve" xmlns:serif="http://www.serif.com/" style="fill-rule:evenodd;clip-rule:evenodd;stroke-linejoin:round;stroke-miterlimit:2;"><g id="Logo"><path id="Pin-Icon" serif:id="Pin Icon" d="M34.875,28.853c-1.783,5.997 -7.424,11.68 -7.424,11.68c0,0 -5.62,-5.668 -7.413,-11.652c-0.303,-0.842 -0.476,-1.792 -0.476,-2.739c-0,-4.381 3.532,-7.886 7.889,-7.886c4.358,0 7.89,3.505 7.89,7.886c0,0.936 -0.17,1.877 -0.466,2.711Zm-7.424,-5.956c-1.794,0 -3.248,1.455 -3.248,3.249c-0,1.794 2.499,5.338 3.248,5.338c0.75,-0 3.249,-3.544 3.249,-5.338c0,-1.794 -1.454,-3.249 -3.249,-3.249Z" style="fill:url(#_Linear1);"/><path d="M25.728,0.784c0.447,-0.024 0.883,0.137 1.208,0.444c0.324,0.307 0.508,0.734 0.508,1.181c0.007,2.333 0.007,6.519 0.007,8.775c0,0.846 -0.645,1.551 -1.487,1.627c-7.342,0.736 -13.078,6.943 -13.078,14.479c-0,6.035 3.677,11.217 8.911,13.426c0.184,0.074 0.316,0.238 0.349,0.434c0.033,0.195 -0.037,0.394 -0.187,0.524c-1.627,1.487 -2.647,3.627 -2.647,6.003c-0,1.544 0.431,2.989 1.18,4.22c0.126,0.197 0.118,0.451 -0.021,0.639c-0.139,0.188 -0.38,0.271 -0.605,0.208c-10.97,-3.263 -18.975,-13.431 -18.975,-25.454c-0,-14.08 10.98,-25.616 24.837,-26.506Z" style="fill:url(#_Linear2);"/><path d="M25.728,0.784c0.447,-0.024 0.883,0.137 1.208,0.444c0.324,0.307 0.508,0.734 0.508,1.181c0.007,2.333 0.007,6.519 0.007,8.775c0,0.846 -0.645,1.551 -1.487,1.627c-7.342,0.736 -13.078,6.943 -13.078,14.479c-0,6.035 3.677,11.217 8.911,13.426c0.184,0.074 0.316,0.238 0.349,0.434c0.033,0.195 -0.037,0.394 -0.187,0.524c-1.627,1.487 -2.647,3.627 -2.647,6.003c-0,1.544 0.431,2.989 1.18,4.22c0.126,0.197 0.118,0.451 -0.021,0.639c-0.139,0.188 -0.38,0.271 -0.605,0.208c-10.97,-3.263 -18.975,-13.431 -18.975,-25.454c-0,-14.08 10.98,-25.616 24.837,-26.506Z" style="fill:url(#_Linear3);"/><path d="M27.451,42.713c2.838,-0 5.141,2.303 5.141,5.141c0,2.837 -2.303,5.14 -5.141,5.14c-2.837,0 -5.14,-2.303 -5.14,-5.14c-0,-2.838 2.303,-5.141 5.14,-5.141Zm0,1.891c1.794,-0 3.25,1.456 3.25,3.25c0,1.793 -1.456,3.249 -3.25,3.249c-1.793,0 -3.249,-1.456 -3.249,-3.249c-0,-1.794 1.456,-3.25 3.249,-3.25Z" style="fill:#f9a26c;"/><path d="M27.451,42.713c2.838,-0 5.141,2.303 5.141,5.141c0,2.837 -2.303,5.14 -5.141,5.14c-2.837,0 -5.14,-2.303 -5.14,-5.14c-0,-2.838 2.303,-5.141 5.14,-5.141Zm0,7.554c-1.332,0 -2.413,-1.081 -2.413,-2.413c-0,-1.333 1.081,-2.414 2.413,-2.414c1.333,-0 2.414,1.081 2.414,2.414c0,1.332 -1.081,2.413 -2.414,2.413Z" style="fill:url(#_Linear4);"/></g><defs><linearGradient id="_Linear1" x1="0" y1="0" x2="1" y2="0" gradientUnits="userSpaceOnUse" gradientTransform="matrix(15.7794,0,0,22.2768,19.5617,29.3947)"><stop offset="0" style="stop-color:#56715f;stop-opacity:1"/><stop offset="1" style="stop-color:#1d3124;stop-opacity:1"/></linearGradient><linearGradient id="_Linear2" x1="0" y1="0" x2="1" y2="0" gradientUnits="userSpaceOnUse" gradientTransform="matrix(26.5609,0,0,52.4387,0.890569,26.9487)"><stop offset="0" style="stop-color:#56715f;stop-opacity:1"/><stop offset="1" style="stop-color:#1d3124;stop-opacity:1"/></linearGradient><linearGradient id="_Linear3" x1="0" y1="0" x2="1" y2="0" gradientUnits="userSpaceOnUse" gradientTransform="matrix(26.5609,0,0,52.4387,0.890569,26.9487)"><stop offset="0" style="stop-color:#56715f;stop-opacity:1"/><stop offset="1" style="stop-color:#1d3124;stop-opacity:1"/></linearGradient><linearGradient id="_Linear4" x1="0" y1="0" x2="1" y2="0" gradientUnits="userSpaceOnUse" gradientTransform="matrix(10.2816,0,0,10.2816,22.3106,47.8535)"><stop offset="0" style="stop-color:#466c58;stop-opacity:1"/><stop offset="1" style="stop-color:#1d3124;stop-opacity:1"/></linearGradient></defs></svg>