<?xml version="1.0" encoding="UTF-8" standalone="no"?><!DOCTYPE svg PUBLIC "-//W3C//DTD SVG 1.1//EN" "http://www.w3.org/Graphics/SVG/1.1/DTD/svg11.dtd"><svg width="100%" height="100%" viewBox="0 0 26 26" version="1.1" xmlns="http://www.w3.org/2000/svg" xmlns:xlink="http://www.w3.org/1999/xlink" xml:space="preserve" xmlns:serif="http://www.serif.com/" style="fill-rule:evenodd;clip-rule:evenodd;stroke-linejoin:round;stroke-miterlimit:2;"><path id="Phone" d="M5.591,0.605c-1.696,-0 -3.391,1.859 -3.664,2.242l-0.11,0.109l-0.054,0.164c-2.352,5.414 5.577,13.562 6.562,14.546c0.765,0.765 7.218,6.945 12.413,6.945c0.82,-0 1.531,-0.165 2.187,-0.438l0.164,-0.055l0.109,-0.109c0.493,-0.383 2.953,-2.57 2.078,-4.539c-0.328,-0.765 -3.007,-3.609 -6.398,-4.156l-0.218,-0.054l-0.219,0.054c-0.164,0.055 -1.312,0.274 -2.953,1.368c-0.547,-0.274 -1.64,-1.039 -3.445,-2.789c-1.75,-1.75 -2.515,-2.844 -2.789,-3.391c1.039,-1.64 1.313,-2.788 1.367,-2.898l0.055,-0.219l-0.055,-0.218c-0.546,-3.391 -3.445,-6.015 -4.21,-6.398c-0.219,-0.109 -0.492,-0.164 -0.82,-0.164Z" style="fill:#f26627;fill-rule:nonzero;stroke:#f9a26c;stroke-width:1px;"/></svg>