<?xml version="1.0" encoding="UTF-8" standalone="no"?><!DOCTYPE svg PUBLIC "-//W3C//DTD SVG 1.1//EN" "http://www.w3.org/Graphics/SVG/1.1/DTD/svg11.dtd"><svg width="100%" height="100%" viewBox="0 0 21 20" version="1.1" xmlns="http://www.w3.org/2000/svg" xmlns:xlink="http://www.w3.org/1999/xlink" xml:space="preserve" xmlns:serif="http://www.serif.com/" style="fill-rule:evenodd;clip-rule:evenodd;stroke-linejoin:round;stroke-miterlimit:2;"><path id="Star_Full" d="M10.205,0.919c0.07,-0.121 0.198,-0.195 0.337,-0.195c0.14,-0 0.268,0.074 0.338,0.195l3.109,5.41l6.107,1.286c0.136,0.028 0.246,0.128 0.289,0.26c0.043,0.132 0.012,0.278 -0.081,0.381l-4.184,4.629l0.664,6.205c0.015,0.138 -0.046,0.274 -0.158,0.356c-0.113,0.082 -0.261,0.097 -0.388,0.04l-5.696,-2.549l-5.695,2.549c-0.127,0.057 -0.275,0.042 -0.388,-0.04c-0.112,-0.082 -0.173,-0.218 -0.158,-0.356l0.664,-6.205l-4.184,-4.629c-0.093,-0.103 -0.124,-0.249 -0.081,-0.381c0.043,-0.132 0.153,-0.232 0.289,-0.26l6.107,-1.286l3.109,-5.41Z" style="fill:#f26627;"/><path d="M10.205,0.919c0.07,-0.121 0.198,-0.195 0.337,-0.195c0.14,-0 0.268,0.074 0.338,0.195l3.109,5.41l6.107,1.286c0.136,0.028 0.246,0.128 0.289,0.26c0.043,0.132 0.012,0.278 -0.081,0.381l-4.184,4.629l0.664,6.205c0.015,0.138 -0.046,0.274 -0.158,0.356c-0.113,0.082 -0.261,0.097 -0.388,0.04l-5.696,-2.549l-5.695,2.549c-0.127,0.057 -0.275,0.042 -0.388,-0.04c-0.112,-0.082 -0.173,-0.218 -0.158,-0.356l0.664,-6.205l-4.184,-4.629c-0.093,-0.103 -0.124,-0.249 -0.081,-0.381c0.043,-0.132 0.153,-0.232 0.289,-0.26l6.107,-1.286l3.109,-5.41Zm0.337,2.334l2.185,3.801l0.962,0.699l4.291,0.904l-2.94,3.252l-0.368,1.131l0.467,4.36l-4.002,-1.791l-1.189,-0l-4.002,1.791l0.466,-4.36l-0.367,-1.131l-2.94,-3.252l4.29,-0.904l0.962,-0.699l2.185,-3.801Z" style="fill:#f9a26c;"/></svg>