<?xml version="1.0" encoding="UTF-8" standalone="no"?><!DOCTYPE svg PUBLIC "-//W3C//DTD SVG 1.1//EN" "http://www.w3.org/Graphics/SVG/1.1/DTD/svg11.dtd"><svg width="100%" height="100%" viewBox="0 0 25 21" version="1.1" xmlns="http://www.w3.org/2000/svg" xmlns:xlink="http://www.w3.org/1999/xlink" xml:space="preserve" xmlns:serif="http://www.serif.com/" style="fill-rule:evenodd;clip-rule:evenodd;stroke-linejoin:round;stroke-miterlimit:2;"><path id="Twit_act" d="M22.095,5.617c0.01,0.216 0.013,0.433 0.013,0.653c-0,6.675 -4.949,14.372 -14,14.372c-2.779,0 -5.364,-0.834 -7.542,-2.27c0.385,0.048 0.775,0.07 1.173,0.07c2.305,-0 4.427,-0.806 6.112,-2.163c-2.153,-0.038 -3.971,-1.5 -4.598,-3.506c0.301,0.06 0.611,0.092 0.927,0.092c0.447,-0 0.882,-0.063 1.297,-0.178c-2.252,-0.465 -3.949,-2.507 -3.949,-4.952l-0,-0.064c0.664,0.375 1.424,0.605 2.231,0.63c-1.322,-0.907 -2.191,-2.452 -2.191,-4.204c0,-0.926 0.242,-1.792 0.667,-2.541c2.426,3.058 6.054,5.067 10.143,5.281c-0.084,-0.37 -0.127,-0.759 -0.127,-1.153c-0,-2.79 2.202,-5.051 4.921,-5.051c1.414,-0 2.693,0.614 3.589,1.595c1.123,-0.226 2.175,-0.646 3.128,-1.226c-0.37,1.178 -1.148,2.169 -2.166,2.793c0.996,-0.118 1.945,-0.392 2.827,-0.793c-0.661,1.013 -1.493,1.901 -2.455,2.615Z" style="fill:#f26627;"/></svg>